<svg width="19" height="28" viewBox="0 0 19 28" fill="none" xmlns="http://www.w3.org/2000/svg">
<path d="M7.19748 0.0110247C10.7776 -0.201591 14.1676 2.68838 14.7556 6.3169C15.0408 8.34218 14.916 10.3968 15.0004 12.4346C15.9184 11.2862 17.2591 10.4736 18.7271 10.4523C18.7463 12.009 18.8158 13.5648 18.7722 15.1205C18.7405 16.6393 18.9523 18.188 18.5766 19.6786C18.1014 21.8178 16.8766 23.7354 15.2337 25.1138C15.1839 23.4863 15.176 21.858 15.1325 20.2325C14.1306 20.312 13.173 20.6481 12.3327 21.2154C12.2019 19.7473 11.6608 18.2935 10.6161 17.2601C9.56607 16.1597 8.08942 15.5713 6.60001 15.5627C6.501 16.2393 6.44655 16.9475 6.13704 17.5654C5.51883 18.8465 4.28889 19.7673 3.96464 21.2072C3.69133 22.5661 3.86489 23.9664 3.85788 25.3419C1.44852 23.5385 -0.0610537 20.5048 0.00572399 17.4219C-0.0724008 15.144 0.654294 12.8941 1.87341 11.009C2.87882 9.35726 4.41557 8.13877 5.41459 6.48062C6.6334 4.57828 7.26727 2.29124 7.19748 0.0110247Z" fill="#FAFAFA"/>
<path d="M3.04861 2.63489C3.37387 2.19622 3.90555 2.05857 4.4022 1.95402C4.36082 3.04475 4.74836 4.34578 3.96632 5.24724C3.63893 5.68379 3.10311 5.82368 2.60656 5.93472C2.64795 4.84399 2.26021 3.53214 3.04861 2.63489Z" fill="#FAFAFA"/>
<path d="M6.60001 15.5627C8.08942 15.5713 9.56607 16.1597 10.6161 17.2601C11.6608 18.2935 12.2019 19.7473 12.3327 21.2154C13.173 20.6481 14.1306 20.312 15.1325 20.2325C15.176 21.858 15.1839 23.4863 15.2337 25.1138C14.37 25.781 13.4227 26.3358 12.3898 26.6732C12.3815 25.8516 12.3669 25.0322 12.3461 24.213C11.4078 24.5681 10.4672 24.9168 9.51341 25.2289C9.49169 24.241 9.48044 23.2529 9.44825 22.2652C8.59667 22.4349 7.71896 22.7845 7.23446 23.5744C6.55125 24.4978 6.72993 25.7141 6.74074 26.7952C5.7148 26.4643 4.74456 25.9696 3.85788 25.3419C3.86489 23.9664 3.69133 22.5661 3.96464 21.2072C4.28889 19.7673 5.51883 18.8465 6.13704 17.5654C6.44655 16.9475 6.501 16.2393 6.60001 15.5627Z" fill="#D4D4D8"/>
<path d="M7.23446 23.5744C7.71896 22.7845 8.59667 22.4349 9.44825 22.2652C9.48044 23.2529 9.49169 24.241 9.51341 25.2289C10.4672 24.9168 11.4078 24.5681 12.3461 24.213C12.3669 25.0322 12.3815 25.8516 12.3898 26.6732L12.3893 26.7115C10.56 27.2608 8.57906 27.3443 6.74074 26.7952C6.72993 25.7141 6.55125 24.4978 7.23446 23.5744Z" fill="#A1A1AA"/>
</svg>
